<?xml version="1.0" encoding="utf-8"?>
<!-- Generator: Adobe Illustrator 19.0.0, SVG Export Plug-In . SVG Version: 6.00 Build 0)  -->
<!DOCTYPE svg PUBLIC "-//W3C//DTD SVG 1.1//EN" "http://www.w3.org/Graphics/SVG/1.1/DTD/svg11.dtd">
<svg version="1.1" id="Layer_1" xmlns="http://www.w3.org/2000/svg" xmlns:xlink="http://www.w3.org/1999/xlink" x="0px" y="0px"
	 viewBox="0 0 1400 734.7" enable-background="new 0 0 1400 734.7" xml:space="preserve">
<g id="XMLID_6_">
	<g id="XMLID_7_">
		<g id="XMLID_14_">
			<path id="XMLID_4_" fill="#E8E8E8" d="M813.7,467.5c-4.7,0-9.6,0-15,0c-6.4,0-13.4-0.1-20.9-0.1c-3.2,0-5.8-2.6-5.8-5.8
				s2.6-5.8,5.8-5.8c7.6,0,14.6,0,21,0.1c36.6,0.2,56.8,0.3,63.5-6.5c3.6-3.6,4.9-10.3,4.9-24.9c0-22.2,0.2-41,0.4-56.2
				c0.5-43.4,0.7-65.1-4.8-70.7c-1.9-1.9-5.4-2.6-12.8-2.6c-6.3,0-12.1,0.1-17.3,0.1c-27,0.3-41.9,0.4-51-8.5
				c-7.7-7.6-9.2-20.1-9.2-39v-89.9c0-20.5,2.8-31.7,9.5-38.4c8.6-8.5,21.8-8.3,41.8-8.1c3.6,0,7.4,0.1,11.5,0.1
				c15.1,0,27.1,0,34.5,7.4c9.4,9.4,9.3,28.4,9,70.1c0,3.2-2.6,5.8-5.8,5.8c0,0,0,0,0,0c-3.2,0-5.8-2.6-5.8-5.8
				c0.2-36,0.3-55.9-5.7-61.9c-3.8-3.8-12.5-4-26.3-4c-4.2,0-8,0-11.7-0.1c-17.1-0.2-28.5-0.3-33.6,4.7c-4.2,4.2-6.1,13.5-6.1,30.1
				v89.9c0,18.1,1.6,26.7,5.8,30.8c5.6,5.6,19.6,5.4,42.7,5.2c5.3-0.1,11.1-0.1,17.5-0.1c7.6,0,15.5,0.5,21,6.1
				c8.9,9,8.7,26.7,8.2,79c-0.2,15.2-0.4,34-0.4,56.1c0,15.7-1.4,26.2-8.3,33.1C861.6,466.5,845.7,467.5,813.7,467.5z"/>
		</g>
		<g id="XMLID_10_">
			<path id="XMLID_11_" fill="#E8E8E8" d="M1006,467.4c-3.2,0-5.8-2.6-5.8-5.8V129.2c0-5.5,2.6-18.3,26.9-18.3h44.2
				c14.7,0,24.1,0.3,30,6.4c6.9,7.1,6.6,19,6,45.1c-0.2,9.2-0.5,20.7-0.5,34.4c0,10.7,0.1,20.2,0.3,28.5c0.5,33.1,0.8,49.7-9.1,59.6
				c-10.4,10.5-28.6,10.3-68.5,10.1c-5.5,0-11.4-0.1-17.7-0.1v166.6C1011.8,464.8,1009.2,467.4,1006,467.4z M1011.8,283.4
				c6.4,0,12.3,0.1,17.8,0.1c34.3,0.2,53.3,0.4,60.2-6.6c6.4-6.5,6.2-22.4,5.8-51.3c-0.1-8.4-0.3-17.9-0.3-28.7
				c0-13.8,0.3-25.4,0.5-34.7c0.5-20.7,0.8-33.2-2.7-36.7c-2.6-2.7-10.7-2.9-21.7-2.9h-44.2c-5.7,0-15.4,0.9-15.4,6.7V283.4z"/>
		</g>
		<g id="XMLID_8_">
			<path id="XMLID_1_" fill="#E8E8E8" d="M1322.2,467.4h-80.7c-9.2,0-20.2-4-20.2-22.8V116.8c0-3.2,2.6-5.8,5.8-5.8s5.8,2.6,5.8,5.8
				v327.9c0,8.5,2.1,11.2,8.7,11.2h80.7c3.2,0,5.8,2.6,5.8,5.8S1325.4,467.4,1322.2,467.4z"/>
		</g>
	</g>
</g>
<g id="XMLID_9_">
	<g id="XMLID_12_">
		<g id="XMLID_20_">
			<path id="XMLID_21_" fill="#E8E8E8" d="M113.7,623.6c-4.7,0-9.6,0-15,0c-6.4,0-13.4-0.1-20.9-0.1c-3.2,0-5.8-2.6-5.8-5.8
				c0-3.2,2.6-5.8,5.8-5.8c7.6,0,14.6,0,21,0.1c36.6,0.2,56.8,0.3,63.5-6.5c3.6-3.6,4.9-10.3,4.9-24.9c0-22.2,0.2-41,0.4-56.2
				c0.5-43.4,0.7-65.1-4.8-70.7c-1.9-1.9-5.4-2.6-12.8-2.6c-6.3,0-12.1,0.1-17.3,0.1c-27,0.3-41.9,0.4-51-8.5
				c-7.7-7.6-9.2-20.1-9.2-39v-89.9c0-20.5,2.8-31.7,9.5-38.4c8.6-8.5,21.8-8.3,41.8-8.1c3.6,0,7.4,0.1,11.5,0.1
				c15.1,0,27.1,0,34.5,7.4c9.4,9.4,9.3,28.4,9,70.1c0,3.2-2.6,5.8-5.8,5.8c0,0,0,0,0,0c-3.2,0-5.8-2.6-5.8-5.8
				c0.2-36,0.3-55.9-5.7-61.9c-3.8-3.8-12.5-4-26.3-4c-4.2,0-8,0-11.7-0.1c-17.1-0.2-28.5-0.3-33.6,4.7c-4.2,4.2-6.1,13.5-6.1,30.1
				v89.9c0,18.1,1.6,26.7,5.8,30.8c5.6,5.6,19.6,5.4,42.7,5.2c5.3-0.1,11.1-0.1,17.5-0.1c7.6,0,15.5,0.5,21,6.1
				c8.9,9,8.7,26.7,8.2,79c-0.2,15.2-0.4,34-0.4,56.1c0,15.7-1.4,26.2-8.3,33.1C161.6,622.5,145.7,623.6,113.7,623.6z"/>
		</g>
		<g id="XMLID_16_">
			<path id="XMLID_17_" fill="#E8E8E8" d="M306,623.5c-3.2,0-5.8-2.6-5.8-5.8V285.3c0-5.5,2.6-18.3,26.9-18.3h44.2
				c14.7,0,24.1,0.3,30,6.4c6.9,7.1,6.6,19,6,45.1c-0.2,9.2-0.5,20.7-0.5,34.4c0,10.7,0.1,20.2,0.3,28.5c0.5,33.1,0.8,49.7-9.1,59.6
				c-10.4,10.5-28.6,10.3-68.5,10.1c-5.5,0-11.4-0.1-17.7-0.1v166.6C311.8,620.9,309.2,623.5,306,623.5z M311.8,439.5
				c6.4,0,12.3,0.1,17.8,0.1c34.3,0.2,53.3,0.4,60.2-6.6c6.4-6.5,6.2-22.4,5.8-51.3c-0.1-8.4-0.3-17.9-0.3-28.7
				c0-13.8,0.3-25.4,0.5-34.7c0.5-20.7,0.8-33.2-2.7-36.7c-2.6-2.7-10.7-2.9-21.7-2.9h-44.2c-5.7,0-15.4,0.9-15.4,6.7V439.5z"/>
		</g>
		<g id="XMLID_13_">
			<path id="XMLID_15_" fill="#E8E8E8" d="M622.2,623.5h-80.7c-9.2,0-20.2-4-20.2-22.8V272.8c0-3.2,2.6-5.8,5.8-5.8s5.8,2.6,5.8,5.8
				v327.9c0,8.5,2.1,11.2,8.7,11.2h80.7c3.2,0,5.8,2.6,5.8,5.8C628,620.9,625.4,623.5,622.2,623.5z"/>
		</g>
	</g>
</g>
</svg>
